<svg width="56" height="56" viewBox="0 0 56 56" fill="none" xmlns="http://www.w3.org/2000/svg">
<g id="Ethereum (ETH)">
<circle id="Ethereum (ETH)_2" cx="28" cy="28" r="28" fill="url(#paint0_linear_185_1766)"/>
<g id="Ethereum (ETH)_3">
<path id="Ethereum (ETH)_4" d="M27.9237 11.2L27.7009 11.9566V33.9094L27.9237 34.1316L38.1137 28.1082L27.9237 11.2Z" fill="#10151A"/>
<path id="Ethereum (ETH)_5" d="M27.9242 11.2L17.7339 28.1082L27.9242 34.1316V23.4763V11.2Z" fill="#10151A"/>
<path id="Ethereum (ETH)_6" d="M27.9239 36.0609L27.7983 36.214V44.0339L27.9239 44.4004L38.1202 30.0406L27.9239 36.0609Z" fill="#10151A"/>
<path id="Ethereum (ETH)_7" d="M27.9237 44.4004V36.0609L17.7334 30.0406L27.9237 44.4004Z" fill="#10151A"/>
<path id="Ethereum (ETH)_8" d="M27.9236 34.1316L38.1136 28.1082L27.9236 23.4763V34.1316Z" fill="#10151A"/>
<path id="Ethereum (ETH)_9" d="M17.7334 28.1082L27.9237 34.1316V23.4763L17.7334 28.1082Z" fill="#10151A"/>
</g>
</g>
<defs>
<linearGradient id="paint0_linear_185_1766" x1="28" y1="0" x2="28" y2="56" gradientUnits="userSpaceOnUse">
<stop stop-color="#7993F9"/>
<stop offset="1" stop-color="#627EEA"/>
</linearGradient>
</defs>
</svg>
