<svg width="58" height="57" viewBox="0 0 58 57" fill="none" xmlns="http://www.w3.org/2000/svg">
<g id="Polygon (MATIC)">
<circle id="Polygon (MATIC)_2" cx="29" cy="28.0503" r="28.0503" fill="url(#paint0_linear_185_1724)"/>
<g id="Polygon (MATIC)_3">
<path id="Polygon (MATIC)_4" d="M37.4161 22.4167C36.818 22.0726 36.049 22.0726 35.3654 22.4167L30.5805 25.255L27.3336 27.0612L22.6341 29.8995C22.036 30.2436 21.267 30.2436 20.5835 29.8995L16.9093 27.6633C16.3112 27.3192 15.884 26.6312 15.884 25.8571V21.5566C15.884 20.8685 16.2258 20.1804 16.9093 19.7504L20.5835 17.6001C21.1816 17.2561 21.9506 17.2561 22.6341 17.6001L26.3083 19.8364C26.9064 20.1804 27.3336 20.8685 27.3336 21.6426V24.4809L30.5805 22.5887V19.6644C30.5805 18.9763 30.2387 18.2882 29.5552 17.8582L22.7196 13.8157C22.1215 13.4717 21.3525 13.4717 20.6689 13.8157L13.6624 17.9442C12.9789 18.2882 12.6371 18.9763 12.6371 19.6644V27.7493C12.6371 28.4374 12.9789 29.1255 13.6624 29.5555L20.5835 33.598C21.1816 33.942 21.9506 33.942 22.6341 33.598L27.3336 30.8456L30.5805 28.9534L35.28 26.2011C35.8781 25.8571 36.6471 25.8571 37.3306 26.2011L41.0048 28.3514C41.6029 28.6954 42.0301 29.3835 42.0301 30.1576V34.4581C42.0301 35.1461 41.6883 35.8342 41.0048 36.2643L37.4161 38.4145C36.818 38.7586 36.049 38.7586 35.3654 38.4145L31.6913 36.2643C31.0932 35.9202 30.6659 35.2322 30.6659 34.4581V31.7057L27.419 33.598V36.4363C27.419 37.1244 27.7608 37.8125 28.4444 38.2425L35.3654 42.285C35.9635 42.629 36.7325 42.629 37.4161 42.285L44.3371 38.2425C44.9352 37.8985 45.3625 37.2104 45.3625 36.4363V28.2654C45.3625 27.5773 45.0207 26.8892 44.3371 26.4591L37.4161 22.4167Z" fill="#10151A"/>
</g>
</g>
<defs>
<linearGradient id="paint0_linear_185_1724" x1="29" y1="0" x2="29" y2="56.1006" gradientUnits="userSpaceOnUse">
<stop stop-color="#965EF4"/>
<stop offset="1" stop-color="#8247E5"/>
</linearGradient>
</defs>
</svg>
