<svg width="150" height="150" viewBox="0 0 150 150" fill="none" xmlns="http://www.w3.org/2000/svg">
<g filter="url(#filter0_d_0_2220)">
<rect x="46.9999" y="46.9999" width="56.0003" height="56.0003" rx="28.0001" fill="url(#paint0_linear_0_2220)"/>
<path d="M62.8488 72.8267C63.2091 73.5661 64.101 75.0274 64.101 75.0274L74.4119 58.6666L64.3488 65.4115C63.7492 65.7955 63.2572 66.3152 62.9163 66.9248C62.458 67.8445 62.2145 68.8492 62.2028 69.8686C62.1912 70.888 62.4116 71.8976 62.8488 72.8267Z" fill="#10151A"/>
<path d="M58.7632 78.214C58.8768 79.779 59.3374 81.3026 60.1143 82.6829C60.8912 84.0631 61.9663 85.268 63.2677 86.2171L74.3983 93.6668C74.3983 93.6668 67.4344 84.0336 61.5605 74.4481C60.9658 73.4353 60.566 72.3281 60.3803 71.1793C60.2981 70.6592 60.2981 70.13 60.3803 69.6099C60.2271 69.8822 59.9298 70.44 59.9298 70.44C59.3342 71.6059 58.9286 72.8527 58.7271 74.1367C58.6111 75.4941 58.6232 76.8587 58.7632 78.214Z" fill="#10151A"/>
<path d="M87.1597 79.5067C86.7993 78.7675 85.9075 77.306 85.9075 77.306L75.5965 93.6668L85.6597 86.9263C86.2594 86.5422 86.7512 86.0225 87.0921 85.4129C87.5512 84.4926 87.795 83.4872 87.8067 82.467C87.8184 81.4468 87.5975 80.4365 87.1597 79.5067Z" fill="#10151A"/>
<path d="M91.2453 74.1194C91.1317 72.5544 90.671 71.0308 89.8942 69.6506C89.1173 68.2703 88.0422 67.0654 86.7408 66.1163L75.6101 58.6666C75.6101 58.6666 82.5696 68.2998 88.4479 77.8853C89.0412 78.8983 89.4393 80.0056 89.6237 81.1541C89.7059 81.6742 89.7059 82.2034 89.6237 82.7236C89.7768 82.4511 90.0741 81.8934 90.0741 81.8934C90.6697 80.7275 91.0754 79.4807 91.2769 78.1967C91.3943 76.8395 91.3838 75.4748 91.2453 74.1194Z" fill="#10151A"/>
<path d="M62.9163 66.9248C63.2572 66.3152 63.7492 65.7955 64.3488 65.4115L74.4119 58.6666L64.101 75.0317C64.101 75.0317 63.2001 73.5703 62.8488 72.8309C62.4109 71.9013 62.1901 70.8909 62.2018 69.8707C62.2134 68.8505 62.4573 67.8451 62.9163 66.9248ZM58.7632 78.214C58.8768 79.779 59.3374 81.3026 60.1143 82.6829C60.8912 84.0631 61.9663 85.268 63.2677 86.2171L74.3983 93.6668C74.3983 93.6668 67.4344 84.0336 61.5605 74.4481C60.9658 73.4353 60.566 72.3281 60.3803 71.1793C60.2981 70.6592 60.2981 70.13 60.3803 69.6099C60.2271 69.8822 59.9298 70.44 59.9298 70.44C59.3342 71.6059 58.9286 72.8527 58.7271 74.1367C58.6111 75.4941 58.6232 76.8587 58.7632 78.214ZM87.1416 79.5111C86.7813 78.7717 85.8895 77.3103 85.8895 77.3103L75.5965 93.6668L85.6597 86.9263C86.2594 86.5422 86.7512 86.0225 87.0921 85.4129C87.5512 84.4926 87.795 83.4872 87.8067 82.467C87.8184 81.4468 87.5975 80.4365 87.1597 79.5067L87.1416 79.5111ZM91.2272 74.1238C91.1137 72.5588 90.6529 71.0351 89.8761 69.6549C89.0993 68.2747 88.0242 67.0697 86.7227 66.1206L75.6101 58.6666C75.6101 58.6666 82.5696 68.2998 88.4479 77.8853C89.0412 78.8983 89.4393 80.0056 89.6237 81.1541C89.7059 81.6742 89.7059 82.2034 89.6237 82.7236C89.7768 82.4511 90.0741 81.8934 90.0741 81.8934C90.6697 80.7275 91.0754 79.4807 91.2769 78.1967C91.3943 76.8395 91.3838 75.4748 91.2453 74.1194L91.2272 74.1238Z" fill="#10151A"/>
</g>
<defs>
<filter id="filter0_d_0_2220" x="-0.00012207" y="-0.000137329" width="150" height="150" filterUnits="userSpaceOnUse" color-interpolation-filters="sRGB">
<feFlood flood-opacity="0" result="BackgroundImageFix"/>
<feColorMatrix in="SourceAlpha" type="matrix" values="0 0 0 0 0 0 0 0 0 0 0 0 0 0 0 0 0 0 127 0" result="hardAlpha"/>
<feOffset/>
<feGaussianBlur stdDeviation="23.5"/>
<feComposite in2="hardAlpha" operator="out"/>
<feColorMatrix type="matrix" values="0 0 0 0 0.458824 0 0 0 0 0.721569 0 0 0 0 0.984314 0 0 0 0.3 0"/>
<feBlend mode="normal" in2="BackgroundImageFix" result="effect1_dropShadow_0_2220"/>
<feBlend mode="normal" in="SourceGraphic" in2="effect1_dropShadow_0_2220" result="shape"/>
</filter>
<linearGradient id="paint0_linear_0_2220" x1="75" y1="46.9999" x2="75" y2="103" gradientUnits="userSpaceOnUse">
<stop stop-color="#A09FFE"/>
<stop offset="1" stop-color="#4ACEF7"/>
</linearGradient>
</defs>
</svg>
