<svg width="367" height="132" viewBox="0 0 367 132" fill="none" xmlns="http://www.w3.org/2000/svg">
<rect x="1" y="1" width="365" height="130" rx="29" fill="#121E28"/>
<rect x="1" y="1" width="365" height="130" rx="29" stroke="#2A3744" stroke-width="2"/>
<path d="M128.971 51.8788H133.236L145.171 79.5843H139.536L136.954 73.2449H124.94L122.436 79.5843H116.918L128.971 51.8788ZM135.232 69.0187L130.966 57.7486L126.623 69.0187H135.232Z" fill="white"/>
<path d="M150.598 51.8788H155.529V75.1233H169.482V79.5843H150.598V51.8788Z" fill="white"/>
<path d="M173.238 51.8788H178.169V75.1233H192.122V79.5843H173.238V51.8788Z" fill="white"/>
<path d="M195.761 51.8788H200.691V79.5843H195.761V51.8788Z" fill="white"/>
<path d="M218.079 51.8788H222.344L234.279 79.5843H228.644L226.062 73.2449H214.048L211.544 79.5843H206.026L218.079 51.8788ZM224.34 69.0187L220.074 57.7486L215.731 69.0187H224.34Z" fill="white"/>
<path d="M239.706 51.8788H246.241L259.663 72.4623H259.742V51.8788H264.672V79.5843H258.411L244.715 58.3356H244.637V79.5843H239.706V51.8788Z" fill="white"/>
<path d="M292.217 58.3747C291.2 57.279 290.209 56.5486 289.243 56.1833C288.304 55.8181 287.352 55.6355 286.387 55.6355C284.952 55.6355 283.647 55.8964 282.473 56.4181C281.326 56.9138 280.334 57.6182 279.499 58.5313C278.665 59.4183 278.012 60.4618 277.543 61.6618C277.099 62.8619 276.878 64.1532 276.878 65.5359C276.878 67.0229 277.099 68.3925 277.543 69.6448C278.012 70.897 278.665 71.9797 279.499 72.8927C280.334 73.8058 281.326 74.5232 282.473 75.045C283.647 75.5668 284.952 75.8276 286.387 75.8276C287.508 75.8276 288.591 75.5668 289.635 75.045C290.704 74.4971 291.696 73.6362 292.609 72.4623L296.678 75.3581C295.426 77.0799 293.9 78.3321 292.1 79.1147C290.3 79.8974 288.382 80.2887 286.348 80.2887C284.208 80.2887 282.239 79.9495 280.439 79.2713C278.665 78.5669 277.125 77.5886 275.821 76.3364C274.543 75.058 273.538 73.5319 272.808 71.7579C272.077 69.9839 271.712 68.0143 271.712 65.849C271.712 63.6315 272.077 61.6227 272.808 59.8226C273.538 57.9965 274.543 56.4442 275.821 55.1659C277.125 53.8876 278.665 52.9093 280.439 52.231C282.239 51.5266 284.208 51.1744 286.348 51.1744C288.226 51.1744 289.961 51.5136 291.552 52.1919C293.17 52.8441 294.67 53.9659 296.052 55.5572L292.217 58.3747Z" fill="white"/>
<path d="M302.336 51.8788H323.297V56.3399H307.266V63.1488H322.593V67.6099H307.266V75.1233H324.002V79.5843H302.336V51.8788Z" fill="white"/>
<path fill-rule="evenodd" clip-rule="evenodd" d="M69.5228 92.0457C84.171 92.0457 96.0457 80.171 96.0457 65.5228C96.0457 50.8747 84.171 39 69.5228 39C54.8747 39 43 50.8747 43 65.5228C43 80.171 54.8747 92.0457 69.5228 92.0457ZM52.043 78.332C52.043 78.332 59.1258 71.2492 63.3453 64.0157C67.5649 56.7822 69.6746 48.0417 69.6746 48.0417C69.6746 48.0417 71.6337 56.4808 76.0039 64.0157C80.3742 71.5506 87.1556 78.332 87.1556 78.332C87.1556 78.332 79.1686 75.1674 69.6746 75.1674C60.1807 75.1674 52.043 78.332 52.043 78.332Z" fill="white"/>
</svg>
